<svg xmlns="http://www.w3.org/2000/svg" viewBox="0 0 800 500" fill="none" aria-hidden="true">
  <g stroke="rgba(234, 226, 210, 0.3)" stroke-width="1.8" stroke-linecap="round" fill="none">
    <path d="M 320 250 Q 240 180 160 130"/>
    <path d="M 320 250 Q 270 130 230 90"/>
    <path d="M 320 250 Q 400 130 500 110"/>
    <path d="M 320 250 Q 460 220 580 250"/>
    <path d="M 320 250 Q 460 320 540 390"/>
    <path d="M 320 250 Q 380 380 400 440"/>
    <path d="M 320 250 Q 240 380 180 410"/>
    <path d="M 320 250 Q 200 290 110 270"/>
  </g>
  <polygon points="320,170 389.3,210 389.3,290 320,330 250.7,290 250.7,210"
           fill="rgba(234, 226, 210, 0.18)" stroke="rgba(234, 226, 210, 0.95)" stroke-width="3" stroke-linejoin="round"/>
  <circle cx="305" cy="240" r="3" fill="rgba(234, 226, 210, 0.85)"/>
  <circle cx="335" cy="240" r="3" fill="rgba(234, 226, 210, 0.85)"/>
  <circle cx="320" cy="270" r="3" fill="rgba(234, 226, 210, 0.85)"/>
  <circle cx="160" cy="130" r="20" fill="none" stroke="rgba(234, 226, 210, 0.85)" stroke-width="2.5"/>
  <circle cx="230" cy="90"  r="16" fill="none" stroke="rgba(234, 226, 210, 0.85)" stroke-width="2.5"/>
  <circle cx="500" cy="110" r="22" fill="none" stroke="rgba(234, 226, 210, 0.85)" stroke-width="2.5"/>
  <circle cx="580" cy="250" r="28" fill="#1F4BFF"/>
  <circle cx="540" cy="390" r="18" fill="none" stroke="rgba(234, 226, 210, 0.85)" stroke-width="2.5"/>
  <circle cx="400" cy="440" r="22" fill="none" stroke="rgba(234, 226, 210, 0.85)" stroke-width="2.5"/>
  <circle cx="180" cy="410" r="20" fill="none" stroke="rgba(234, 226, 210, 0.85)" stroke-width="2.5"/>
  <circle cx="110" cy="270" r="16" fill="none" stroke="rgba(234, 226, 210, 0.85)" stroke-width="2.5"/>
</svg>
